<?xml version="1.0" standalone="no"?>
<!DOCTYPE svg PUBLIC "-//W3C//DTD SVG 20010904//EN"
 "http://www.w3.org/TR/2001/REC-SVG-20010904/DTD/svg10.dtd">
<svg version="1.0" xmlns="http://www.w3.org/2000/svg"
 width="512.000000pt" height="512.000000pt" viewBox="0 0 512.000000 512.000000"
 preserveAspectRatio="xMidYMid meet">
<metadata>
Created by potrace 1.16, written by Peter Selinger 2001-2019
</metadata>
<g transform="translate(0.000000,512.000000) scale(0.100000,-0.100000)"
fill="#000000" stroke="none">
<path d="M2225 4860 c-498 -75 -922 -285 -1279 -630 -336 -326 -559 -723 -657
-1170 -67 -309 -67 -691 0 -1000 186 -850 852 -1540 1692 -1751 374 -94 796
-94 1165 1 655 169 1215 631 1510 1245 154 319 224 635 224 1005 0 622 -221
1172 -650 1613 -368 380 -816 610 -1337 687 -183 26 -492 27 -668 0z"/>
</g>
</svg>
